<?xml version="1.0" standalone="no"?>
<!DOCTYPE svg PUBLIC "-//W3C//DTD SVG 20010904//EN"
 "http://www.w3.org/TR/2001/REC-SVG-20010904/DTD/svg10.dtd">
<svg version="1.0" xmlns="http://www.w3.org/2000/svg"
 width="302.000000pt" height="302.000000pt" viewBox="0 0 302.000000 302.000000"
 preserveAspectRatio="xMidYMid meet">
<metadata>
Created by potrace 1.14, written by Peter Selinger 2001-2017
</metadata>
<g transform="translate(0.000000,302.000000) scale(0.100000,-0.100000)"
fill="#000000" stroke="none">
<path d="M919 2722 c-67 -114 -125 -211 -129 -215 -7 -8 -111 -36 -195 -52
-22 -5 -44 -9 -50 -11 -112 -26 -242 -54 -248 -54 -5 0 -6 -28 -3 -62 4 -35 9
-90 12 -123 3 -33 7 -78 9 -100 2 -23 7 -77 10 -120 4 -44 8 -85 10 -92 2 -6
1 -13 -3 -15 -4 -2 -38 -39 -77 -83 -38 -44 -76 -87 -85 -96 -8 -9 -40 -44
-70 -79 -30 -35 -65 -75 -78 -88 -22 -25 -21 -35 14 -67 6 -5 44 -48 85 -95
41 -46 79 -90 84 -96 102 -115 130 -148 128 -153 0 -3 -4 -42 -7 -86 -10 -121
-16 -185 -21 -235 -3 -25 -8 -74 -11 -110 l-5 -65 173 -39 c95 -21 198 -45
228 -52 30 -8 62 -14 72 -14 11 0 30 -20 48 -53 17 -28 69 -115 115 -191 47
-77 85 -142 85 -145 0 -3 8 -16 18 -29 l17 -22 185 81 c102 44 190 82 195 83
6 2 27 11 48 20 l38 16 222 -95 c122 -52 229 -95 238 -95 9 0 24 18 35 40 10
22 22 40 26 40 3 0 11 12 17 28 6 15 50 92 99 172 l88 145 165 36 c90 20 200
45 244 56 l80 19 -1 49 c0 28 -4 82 -8 120 -7 74 -11 112 -22 235 -3 41 -8 78
-10 81 -4 6 25 47 56 80 16 17 44 48 160 179 41 47 85 96 97 109 25 28 26 27
-59 120 -24 26 -70 78 -103 116 -33 37 -79 89 -103 114 l-43 46 6 100 c3 55 8
116 10 135 8 62 15 133 21 206 l5 72 -38 7 c-21 5 -47 10 -58 12 -11 2 -57 12
-103 23 -46 11 -96 22 -110 25 -88 16 -186 45 -193 56 -5 8 -61 100 -124 204
-63 105 -118 196 -123 202 -6 10 -67 -12 -240 -87 l-232 -99 -187 80 c-104 45
-209 89 -235 99 l-46 19 -123 -207z m1399 -820 c-7 -9 -60 -63 -118 -120 -58
-57 -294 -292 -525 -521 -231 -229 -425 -420 -432 -424 -7 -5 -113 93 -285
263 l-273 270 98 96 97 96 176 -174 c96 -95 176 -174 177 -175 2 -1 206 200
455 446 l453 448 95 -94 c82 -82 93 -97 82 -111z"/>
</g>
</svg>
